<?xml version="1.0" encoding="UTF-8"?>
<svg width="130px" height="130px" viewBox="0 0 130 130" version="1.1" xmlns="http://www.w3.org/2000/svg" xmlns:xlink="http://www.w3.org/1999/xlink">
    <!-- Generator: Sketch 43.1 (39012) - http://www.bohemiancoding.com/sketch -->
    <title>add</title>
    <desc>Created with Sketch.</desc>
    <defs></defs>
    <g id="Page-1" stroke="none" stroke-width="1" fill="none" fill-rule="evenodd">
        <g id="Icons" transform="translate(-347.000000, -36.000000)" fill-rule="nonzero" fill="#fff">
            <g id="add" transform="translate(347.000000, 36.000000)">
                <path d="M122.90998,55.9142683 L74.0484756,55.9142683 L74.0484756,7.0525 C74.0484756,4.82664634 71.0259756,0.000264227642 64.9812398,0.000264227642 C58.9365041,0.000264227642 55.9140041,4.82691057 55.9140041,7.0525 L55.9140041,55.9145325 L7.05223577,55.9145325 C4.82664634,55.9142683 0,58.9367683 0,64.9812398 C0,71.0257114 4.82664634,74.0484756 7.05223577,74.0484756 L55.9142683,74.0484756 L55.9142683,122.910508 C55.9142683,125.135833 58.9365041,129.962744 64.9815041,129.962744 C71.0265041,129.962744 74.0487398,125.135833 74.0487398,122.910508 L74.0487398,74.0484756 L122.910772,74.0484756 C125.136098,74.0484756 129.963008,71.0262398 129.963008,64.9812398 C129.963008,58.9362398 125.135569,55.9142683 122.90998,55.9142683 Z" id="Shape"></path>
            </g>
        </g>
    </g>
</svg>