<?xml version="1.0" encoding="UTF-8"?>
<svg width="140px" height="120px" viewBox="0 0 140 120" version="1.1" xmlns="http://www.w3.org/2000/svg" xmlns:xlink="http://www.w3.org/1999/xlink">
    <!-- Generator: Sketch 43.1 (39012) - http://www.bohemiancoding.com/sketch -->
    <title>user-name</title>
    <desc>Created with Sketch.</desc>
    <defs></defs>
    <g id="Page-1" stroke="none" stroke-width="1" fill="none" fill-rule="evenodd">
        <g id="Icons" transform="translate(-669.000000, -30.000000)" fill-rule="nonzero">
            <g id="user-name" transform="translate(669.000000, 30.000000)">
                <path d="M131.687198,34.0157746 L94.3582107,34.0157746 L94.3582107,24.9369014 C94.3582107,11.2619718 83.270189,0.177746479 69.591121,0.177746479 C55.9179699,0.177746479 44.8299482,11.2622535 44.8299482,24.9369014 L44.8299482,34.0157746 L7.5040602,34.0157746 C3.3624997,34.0157746 0,37.3771831 0,41.5174648 L0,112.322817 C0,116.462817 3.3624997,119.824507 7.5040602,119.824507 L131.687198,119.824507 C135.828759,119.824507 139.190695,116.462817 139.190695,112.322817 L139.190695,41.5174648 C139.190695,37.3771831 135.828759,34.0157746 131.687198,34.0157746 Z M121.403032,67.6459155 C121.403032,69.5659155 119.843783,71.1242254 117.922757,71.1242254 L81.8247706,71.1242254 C79.9031812,71.1242254 78.3453414,69.5661972 78.3453414,67.6459155 C78.3453414,65.7253521 79.9028995,64.1659155 81.8247706,64.1659155 L117.922757,64.1659155 C119.843783,64.1659155 121.403032,65.7250704 121.403032,67.6459155 Z M103.233869,45.6123944 C105.154049,45.6123944 106.713298,47.1704225 106.713298,49.0907042 C106.713298,51.0109859 105.154331,52.5701408 103.233869,52.5701408 L81.8250524,52.5701408 C79.903463,52.5701408 78.3456231,51.0112676 78.3456231,49.0907042 C78.3456231,47.1707042 79.9031812,45.6123944 81.8250524,45.6123944 L103.233869,45.6123944 Z M69.5908393,10.9904225 C75.0597616,10.9904225 79.4909693,15.4205634 79.4909693,20.888169 C79.4909693,26.3515493 75.0597616,30.7814085 69.5908393,30.7814085 C64.1267068,30.7814085 59.6952173,26.3512676 59.6952173,20.888169 C59.6952173,15.4202817 64.1269886,10.9904225 69.5908393,10.9904225 Z M67.5427405,99.3777465 C67.5427405,104.789859 63.1343552,109.197183 57.7215027,109.197183 L20.3541963,109.197183 C14.9390897,109.197183 10.5307044,104.789859 10.5307044,99.3777465 L10.5307044,54.4625352 C10.5307044,49.0507042 14.9390897,44.6433803 20.3541963,44.6433803 L57.721221,44.6433803 C63.1340734,44.6433803 67.5424588,49.0507042 67.5424588,54.4625352 L67.5424588,99.3777465 L67.5427405,99.3777465 Z M126.43213,108.232958 L105.024441,108.232958 C103.101724,108.232958 101.543884,106.67493 101.543884,104.754085 C101.543884,102.833521 103.101443,101.274648 105.024441,101.274648 L126.43213,101.274648 C128.352592,101.274648 129.911559,102.833239 129.911559,104.754085 C129.911278,106.674648 128.352311,108.232958 126.43213,108.232958 Z M126.43213,89.6785915 L81.8247706,89.6785915 C79.9031812,89.6785915 78.3453414,88.1194366 78.3453414,86.1991549 C78.3453414,84.2791549 79.9028995,82.7208451 81.8247706,82.7208451 L126.431848,82.7208451 C128.352311,82.7208451 129.911278,84.2788732 129.911278,86.1991549 C129.911278,88.1194366 128.352311,89.6785915 126.43213,89.6785915 Z" id="Shape" fill="#595CE2"></path>
                <path d="M57.721221,49.2814085 L20.3541963,49.2814085 C17.4951981,49.2814085 15.1701312,51.6059155 15.1701312,54.4625352 L15.1701312,99.3777465 C15.1701312,102.23662 17.4951981,104.558873 20.3541963,104.558873 L57.721221,104.558873 C60.5785286,104.558873 62.9030319,102.23662 62.9030319,99.3777465 L62.9030319,54.4625352 C62.9030319,51.6059155 60.5785286,49.2814085 57.721221,49.2814085 Z M39.0350319,53.4673239 C45.6442288,53.4673239 51.0139723,60.5247887 51.0139723,69.2270423 C51.0139723,77.9276056 45.6442288,84.9946479 39.0350319,84.9946479 C32.4244262,84.9946479 27.0541192,77.9276056 27.0541192,69.2270423 C27.054401,60.524507 32.4244262,53.4673239 39.0350319,53.4673239 Z M56.3966767,99.2507042 C56.0298278,99.6887324 55.4958964,99.9377465 54.9284359,99.9377465 L23.145009,99.9377465 C22.578112,99.9377465 22.0388272,99.6853521 21.67705,99.2507042 C21.3087923,98.8160563 21.1611511,98.2394366 21.2603299,97.6828169 C22.056578,93.2115493 24.475752,89.4016901 27.8483949,86.7523944 C27.9377122,86.6853521 28.0160409,86.5890141 28.114938,86.5076056 C31.1458085,89.32 34.9250283,91.0197183 39.0353137,91.0197183 C43.1394004,91.0197183 46.9186201,89.3202817 49.9635786,86.5076056 C50.0452884,86.5890141 50.1312246,86.6853521 50.2304034,86.7523944 C53.5881132,89.4014085 56.002779,93.2115493 56.8091704,97.6828169 C56.9094762,98.2439437 56.7598627,98.8160563 56.3966767,99.2507042 Z" id="Shape" fill="#F27475"></path>
            </g>
        </g>
    </g>
</svg>