<?xml version="1.0" encoding="UTF-8"?>
<svg width="97px" height="126px" viewBox="0 0 97 126" version="1.1" xmlns="http://www.w3.org/2000/svg" xmlns:xlink="http://www.w3.org/1999/xlink">
    <!-- Generator: Sketch 43.1 (39012) - http://www.bohemiancoding.com/sketch -->
    <title>locked-padlock</title>
    <desc>Created with Sketch.</desc>
    <defs></defs>
    <g id="Page-1" stroke="none" stroke-width="1" fill="none" fill-rule="evenodd">
        <g id="Icons" transform="translate(-204.000000, -23.000000)">
            <g id="locked-padlock" transform="translate(204.000000, 23.000000)">
                <rect id="Rectangle" fill="#F27475" x="22" y="66" width="53" height="49"></rect>
                <path d="M89.98496,50.8561355 L87.5317653,50.8561355 L87.5317653,39.3717659 C87.5317653,18.1305462 70.6793733,0.386537988 49.615888,0.00776180698 C49.0403547,-0.00258726899 47.8903227,-0.00258726899 47.315048,0.00776180698 C26.2510453,0.386537988 9.398912,18.1305462 9.398912,39.3717659 L9.398912,50.8561355 L6.94545867,50.8561355 C3.16478667,50.8561355 0.0809626667,54.7582546 0.0809626667,59.5775606 L0.0809626667,117.178448 C0.0809626667,121.99232 3.16478667,125.93092 6.94571733,125.93092 L89.98496,125.93092 C93.765632,125.93092 96.8497147,121.99232 96.8497147,117.178448 L96.8497147,59.5775606 C96.8497147,54.7585133 93.7658907,50.8561355 89.98496,50.8561355 Z M56.2449973,88.3195318 L56.2449973,105.724349 C56.2449973,107.717322 54.576856,109.403963 52.5827947,109.403963 L44.3484,109.403963 C42.35408,109.403963 40.6859387,107.717322 40.6859387,105.724349 L40.6859387,88.3195318 C38.751888,86.4153018 37.625912,83.7822382 37.625912,80.8694908 C37.625912,75.3498111 41.891584,70.6068296 47.3153067,70.3876879 C47.890064,70.3644025 49.0413893,70.3644025 49.6161467,70.3876879 C55.0398693,70.6068296 59.3055413,75.3498111 59.3055413,80.8694908 C59.305024,83.7822382 58.179048,86.4153018 56.2449973,88.3195318 Z M71.362512,50.8561355 L49.615888,50.8561355 L47.315048,50.8561355 L25.568424,50.8561355 L25.568424,39.3717659 C25.568424,26.7187269 35.848872,16.2565873 48.4653387,16.2565873 C61.0818053,16.2565873 71.3627707,26.7187269 71.3627707,39.3717659 L71.3627707,50.8561355 L71.362512,50.8561355 Z" id="Shape" fill="#595CE2" fill-rule="nonzero"></path>
            </g>
        </g>
    </g>
</svg>