<?xml version="1.0" encoding="UTF-8"?>
<svg width="130px" height="129px" viewBox="0 0 130 129" version="1.1" xmlns="http://www.w3.org/2000/svg" xmlns:xlink="http://www.w3.org/1999/xlink">
    <!-- Generator: Sketch 43.1 (39012) - http://www.bohemiancoding.com/sketch -->
    <title>username</title>
    <desc>Created with Sketch.</desc>
    <defs></defs>
    <g id="Page-1" stroke="none" stroke-width="1" fill="none" fill-rule="evenodd">
        <g id="Icons" transform="translate(-28.000000, -21.000000)" fill-rule="nonzero" fill="#595ce2">
            <g id="user-silhouette" transform="translate(28.000000, 21.000000)">
                <path d="M65.026253,68.3576388 C81.0513625,68.3576388 94.0437713,53.1201081 94.0437713,34.3238256 C94.0437713,8.25853563 81.0519951,0.290329238 65.026253,0.290329238 C48.9998783,0.290329238 36.0087348,8.25853563 36.0087348,34.3238256 C36.0090511,53.1201081 49.0001946,68.3576388 65.026253,68.3576388 Z" id="Shape"></path>
                <path d="M129.102968,118.450843 L114.46326,85.4043391 C113.79365,83.8921548 112.617324,82.6379705 111.153163,81.874113 L88.4332117,70.0225946 C87.9321898,69.761742 87.3255231,69.8124545 86.8751095,70.1541302 C80.4491241,75.0244349 72.8936253,77.5987297 65.026253,77.5987297 C57.1576156,77.5987297 49.6027494,75.0244349 43.176764,70.1541302 C42.7250852,69.8124545 42.1184185,69.761742 41.6173966,70.0225946 L18.8990268,81.874113 C17.4342336,82.6379705 16.2591727,83.8915209 15.5889294,85.4043391 L0.949221411,118.450843 C-0.0600973236,120.729103 0.14676399,123.335727 1.50274939,125.4254 C2.85810219,127.514757 5.15192214,128.761651 7.63900243,128.761651 L122.412555,128.761651 C124.899635,128.761651 127.194088,127.514123 128.54944,125.425084 C129.904793,123.335727 130.112287,120.728152 129.102968,118.450843 Z" id="Shape"></path>
            </g>
        </g>
    </g>
</svg>